<?xml version="1.0" encoding="UTF-8"?>
<svg id="Layer_1" data-name="Layer 1" xmlns="http://www.w3.org/2000/svg" version="1.1" viewBox="0 0 128 128">
  <defs>
    <style>
      .cls-1, .cls-2 {
        stroke-width: 0px;
      }

      .cls-1, .cls-3 {
        fill: #000;
      }

      .cls-2 {
        fill: #c900c7;
      }

      .cls-3, .cls-4, .cls-5 {
        stroke: #c900c7;
        stroke-miterlimit: 10;
      }

      .cls-4 {
        fill: #fff;
      }

      .cls-5 {
        fill: none;
        stroke-width: 4px;
      }
    </style>
  </defs>
  <g id="bg_key_color" data-name="bg key color">
    <rect class="cls-1" width="128" height="126"/>
  </g>
  <g id="Layer_2" data-name="Layer 2">
    <rect class="cls-5" width="128" height="128"/>
  </g>
  <g id="horizontal_lines" data-name="horizontal lines">
    <g>
      <rect class="cls-4" x="65.5" y="1.5" width="1" height="125"/>
      <path class="cls-3" d="M66,2v124V2M67,1h-2v126h2V1h0Z"/>
    </g>
    <g>
      <rect class="cls-4" x="98.5" y="2.5" width="1" height="123"/>
      <path class="cls-3" d="M99,3v122V3M100,2h-2v124h2V2h0Z"/>
    </g>
    <g>
      <rect class="cls-4" x="33.5" y="2.5" width="1" height="124"/>
      <path class="cls-3" d="M34,3v123V3M35,2h-2v125h2V2h0Z"/>
    </g>
  </g>
  <g id="Layer_3" data-name="Layer 3">
    <rect class="cls-2" x="23" y="1" width="21" height="71"/>
    <rect class="cls-2" x="54" y="1" width="21" height="71"/>
    <rect class="cls-2" x="88" y="1" width="21" height="71"/>
  </g>
</svg>